# xmcd
#
# Track frame offsets: 
#        182
#        18595
#        30560
#        48402
#        63047
#        77625
#        91607
#        106295
#        125395
#        139422
#
# Disc length: 2054 seconds
#
# Revision: 2
# Processed by: cddbd v1.5.2PL0 Copyright (c) Steve Scherf et al.
# Submitted via: ExactAudioCopy v1.0b2
#
DISCID=7608040a
DTITLE=Various Artist - Country Currents
DYEAR=1991
DGENRE=Country
TTITLE0=Eddie Rabbitt - Runnin' With The Wind
TTITLE1=Tanya Tucker - Walkin' Shoes
TTITLE2=Eddy Raven - Island
TTITLE3=Lacy J. Dalton - Where Did We Go Right
TTITLE4=T. Graham Brown - Hell And High Water
TTITLE5=Larry Gatlin and The Gatlin Brothers - Boogie And Beethoven
TTITLE6=Tanya Tucker and T. Graham Brown - Don't Go Out
TTITLE7=Dan Seals - Wood
TTITLE8=Suzy Bogguss - Under The Gun
TTITLE9=Sawyer Brown - Shakin'
EXTD=
EXTT0=
EXTT1=
EXTT2=
EXTT3=
EXTT4=
EXTT5=
EXTT6=
EXTT7=
EXTT8=
EXTT9=
PLAYORDER=
